<svg xmlns="http://www.w3.org/2000/svg" viewBox="0 0 512 512"><defs><linearGradient id="g" x1="0" x2="1" y1="1" y2="0"><stop stop-color="#0d47a1"/><stop offset="1" stop-color="#00d4ff"/></linearGradient><filter id="s" x="-20%" y="-20%" width="140%" height="140%"><feDropShadow dx="0" dy="10" stdDeviation="12" flood-color="#003a6b" flood-opacity=".35"/></filter></defs><rect width="512" height="512" rx="112" fill="url(#g)"/><g fill="#fff" filter="url(#s)"><path d="M160 84h192c39 0 72 32 72 72v188c0 27-16 51-39 62v34c0 13-11 24-24 24h-8c-13 0-24-11-24-24v-24H183v24c0 13-11 24-24 24h-8c-13 0-24-11-24-24v-34c-23-12-39-35-39-62V156c0-40 32-72 72-72Zm2 54c-12 0-22 10-22 22v88h232v-88c0-12-10-22-22-22H162Zm-22 155v42c0 17 14 31 31 31h170c17 0 31-14 31-31v-42H140Zm50 75a28 28 0 1 0 0-56 28 28 0 0 0 0 56Zm132 0a28 28 0 1 0 0-56 28 28 0 0 0 0 56Zm-91-28h50c9 0 16 7 16 16s-7 16-16 16h-50c-9 0-16-7-16-16s7-16 16-16Z"/><path d="M374 91a74 74 0 1 1 0 148 74 74 0 0 1 0-148Zm0 29a45 45 0 1 0 0 90 45 45 0 0 0 0-90Zm-12 21c0-8 6-14 14-14s14 6 14 14v30l25 15c7 4 9 12 5 19s-12 9-19 5l-32-19c-4-3-7-7-7-12v-38Z"/></g></svg>